REM DIRINDEX 1\6,1\2\7,1\2\8,1\2\9,1\3\10,1\3\11,1\4\12,1\4\13,1\4\14,1\5\15,1\5\16,1\5\17
REM DIRNAME folder01,folder02,folder03,folder04,folder05,folder06,folder07,folder08,folder09,folder10,folder11,folder12,folder13,folder14,folder15,folder16,folder17
TITLE ""
FILE "P2Q_t2_1069-1085.mp3" MP3
  TRACK 01 AUDIO
    TITLE "7:cjc040_7041"
    INDEX 01 00:00:00
  TRACK 02 AUDIO
    TITLE "0:"
    INDEX 01 00:01:11
  TRACK 03 AUDIO
    TITLE "8:cjc040_7042"
    INDEX 01 00:01:68
  TRACK 04 AUDIO
    TITLE "0:"
    INDEX 01 00:04:11
  TRACK 05 AUDIO
    TITLE "9:cjc040_7043"
    INDEX 01 00:04:60
  TRACK 06 AUDIO
    TITLE "0:"
    INDEX 01 00:06:12
  TRACK 07 AUDIO
    TITLE "7:cjc040_7044"
    INDEX 01 00:07:70
  TRACK 08 AUDIO
    TITLE "0:"
    INDEX 01 00:09:38
  TRACK 09 AUDIO
    TITLE "8:cjc040_7045"
    INDEX 01 00:10:19
  TRACK 10 AUDIO
    TITLE "0:"
    INDEX 01 00:12:58
  TRACK 11 AUDIO
    TITLE "9:cjc040_7046"
    INDEX 01 00:13:33
  TRACK 12 AUDIO
    TITLE "0:"
    INDEX 01 00:15:05
  TRACK 13 AUDIO
    TITLE "7:cjc040_7047"
    INDEX 01 00:16:57
  TRACK 14 AUDIO
    TITLE "0:"
    INDEX 01 00:18:11
  TRACK 15 AUDIO
    TITLE "8:cjc040_7048"
    INDEX 01 00:18:66
  TRACK 16 AUDIO
    TITLE "0:"
    INDEX 01 00:20:26
  TRACK 17 AUDIO
    TITLE "9:cjc040_7049"
    INDEX 01 00:21:04
  TRACK 18 AUDIO
    TITLE "0:"
    INDEX 01 00:22:40
  TRACK 19 AUDIO
    TITLE "7:cjc040_7050"
    INDEX 01 00:24:24
  TRACK 20 AUDIO
    TITLE "0:"
    INDEX 01 00:25:33
  TRACK 21 AUDIO
    TITLE "8:cjc040_7051"
    INDEX 01 00:26:05
  TRACK 22 AUDIO
    TITLE "0:"
    INDEX 01 00:29:33
  TRACK 23 AUDIO
    TITLE "9:cjc040_7052"
    INDEX 01 00:30:06
  TRACK 24 AUDIO
    TITLE "0:"
    INDEX 01 00:31:20
  TRACK 25 AUDIO
    TITLE "7:cjc040_7053"
    INDEX 01 00:33:01
  TRACK 26 AUDIO
    TITLE "0:"
    INDEX 01 00:34:36
  TRACK 27 AUDIO
    TITLE "8:cjc040_7054"
    INDEX 01 00:35:19
  TRACK 28 AUDIO
    TITLE "0:"
    INDEX 01 00:37:50
  TRACK 29 AUDIO
    TITLE "9:cjc040_7055"
    INDEX 01 00:38:30
  TRACK 30 AUDIO
    TITLE "0:"
    INDEX 01 00:39:66
  TRACK 31 AUDIO
    TITLE "7:cjc040_7056"
    INDEX 01 00:41:49
  TRACK 32 AUDIO
    TITLE "0:"
    INDEX 01 00:42:72
  TRACK 33 AUDIO
    TITLE "8:cjc040_7057"
    INDEX 01 00:43:50
  TRACK 34 AUDIO
    TITLE "0:"
    INDEX 01 00:45:22
  TRACK 35 AUDIO
    TITLE "9:cjc040_7058"
    INDEX 01 00:46:06
  TRACK 36 AUDIO
    TITLE "0:"
    INDEX 01 00:47:28
  TRACK 37 AUDIO
    TITLE "7:cjc040_7059"
    INDEX 01 00:49:12
  TRACK 38 AUDIO
    TITLE "0:"
    INDEX 01 00:50:39
  TRACK 39 AUDIO
    TITLE "8:cjc040_7060"
    INDEX 01 00:51:18
  TRACK 40 AUDIO
    TITLE "0:"
    INDEX 01 00:52:45
  TRACK 41 AUDIO
    TITLE "9:cjc040_7061"
    INDEX 01 00:53:27
  TRACK 42 AUDIO
    TITLE "0:"
    INDEX 01 00:54:56
  TRACK 43 AUDIO
    TITLE "7:cjc040_7062"
    INDEX 01 00:56:37
  TRACK 44 AUDIO
    TITLE "0:"
    INDEX 01 00:57:70
  TRACK 45 AUDIO
    TITLE "8:cjc040_7063"
    INDEX 01 00:58:44
  TRACK 46 AUDIO
    TITLE "0:"
    INDEX 01 01:00:68
  TRACK 47 AUDIO
    TITLE "9:cjc040_7064"
    INDEX 01 01:01:42
  TRACK 48 AUDIO
    TITLE "0:"
    INDEX 01 01:03:06
  TRACK 49 AUDIO
    TITLE "7:cjc040_7065"
    INDEX 01 01:04:58
  TRACK 50 AUDIO
    TITLE "0:"
    INDEX 01 01:06:24
  TRACK 51 AUDIO
    TITLE "8:cjc040_7066"
    INDEX 01 01:06:73
  TRACK 52 AUDIO
    TITLE "0:"
    INDEX 01 01:08:13
  TRACK 53 AUDIO
    TITLE "9:cjc040_7067"
    INDEX 01 01:08:66
  TRACK 54 AUDIO
    TITLE "0:"
    INDEX 01 01:10:35
  TRACK 55 AUDIO
    TITLE "7:cjc040_7068"
    INDEX 01 01:12:11
  TRACK 56 AUDIO
    TITLE "0:"
    INDEX 01 01:13:53
  TRACK 57 AUDIO
    TITLE "8:cjc040_7069"
    INDEX 01 01:14:29
  TRACK 58 AUDIO
    TITLE "0:"
    INDEX 01 01:16:50
  TRACK 59 AUDIO
    TITLE "9:cjc040_7070"
    INDEX 01 01:17:22
  TRACK 60 AUDIO
    TITLE "0:"
    INDEX 01 01:18:66
  TRACK 61 AUDIO
    TITLE "7:cjc040_7071"
    INDEX 01 01:20:53
  TRACK 62 AUDIO
    TITLE "0:"
    INDEX 01 01:21:72
  TRACK 63 AUDIO
    TITLE "8:cjc040_7072"
    INDEX 01 01:22:52
  TRACK 64 AUDIO
    TITLE "0:"
    INDEX 01 01:24:71
  TRACK 65 AUDIO
    TITLE "9:cjc040_7073"
    INDEX 01 01:25:47
  TRACK 66 AUDIO
    TITLE "0:"
    INDEX 01 01:26:70
  TRACK 67 AUDIO
    TITLE "7:cjc040_7074"
    INDEX 01 01:28:53
  TRACK 68 AUDIO
    TITLE "0:"
    INDEX 01 01:30:18
  TRACK 69 AUDIO
    TITLE "8:cjc040_7075"
    INDEX 01 01:30:71
  TRACK 70 AUDIO
    TITLE "0:"
    INDEX 01 01:32:55
  TRACK 71 AUDIO
    TITLE "9:cjc040_7076"
    INDEX 01 01:33:29
  TRACK 72 AUDIO
    TITLE "0:"
    INDEX 01 01:34:71
  TRACK 73 AUDIO
    TITLE "7:cjc040_7077"
    INDEX 01 01:36:52
  TRACK 74 AUDIO
    TITLE "0:"
    INDEX 01 01:38:02
  TRACK 75 AUDIO
    TITLE "8:cjc040_7078"
    INDEX 01 01:38:55
  TRACK 76 AUDIO
    TITLE "0:"
    INDEX 01 01:41:01
  TRACK 77 AUDIO
    TITLE "9:cjc040_7079"
    INDEX 01 01:41:50
  TRACK 78 AUDIO
    TITLE "0:"
    INDEX 01 01:43:02
  TRACK 79 AUDIO
    TITLE "7:cjc040_7080"
    INDEX 01 01:44:54
  TRACK 80 AUDIO
    TITLE "0:"
    INDEX 01 01:46:10
  TRACK 81 AUDIO
    TITLE "8:cjc040_7081"
    INDEX 01 01:46:59
  TRACK 82 AUDIO
    TITLE "0:"
    INDEX 01 01:48:03
  TRACK 83 AUDIO
    TITLE "9:cjc040_7082"
    INDEX 01 01:48:61
  TRACK 84 AUDIO
    TITLE "0:"
    INDEX 01 01:50:21
  TRACK 85 AUDIO
    TITLE "7:cjc040_7083"
    INDEX 01 01:52:00
  TRACK 86 AUDIO
    TITLE "0:"
    INDEX 01 01:53:20
  TRACK 87 AUDIO
    TITLE "8:cjc040_7084"
    INDEX 01 01:53:74
  TRACK 88 AUDIO
    TITLE "0:"
    INDEX 01 01:55:73
  TRACK 89 AUDIO
    TITLE "9:cjc040_7085"
    INDEX 01 01:56:45
  TRACK 90 AUDIO
    TITLE "0:"
    INDEX 01 01:57:66
  TRACK 91 AUDIO
    TITLE "7:cjc040_7086"
    INDEX 01 01:59:48
  TRACK 92 AUDIO
    TITLE "0:"
    INDEX 01 02:00:67
  TRACK 93 AUDIO
    TITLE "8:cjc040_7087"
    INDEX 01 02:01:48
  TRACK 94 AUDIO
    TITLE "0:"
    INDEX 01 02:03:61
  TRACK 95 AUDIO
    TITLE "9:cjc040_7088"
    INDEX 01 02:04:41
  TRACK 96 AUDIO
    TITLE "0:"
    INDEX 01 02:05:64
  TRACK 97 AUDIO
    TITLE "7:cjc040_7089"
    INDEX 01 02:07:41
  TRACK 98 AUDIO
    TITLE "0:"
    INDEX 01 02:08:58
  TRACK 99 AUDIO
    TITLE "8:cjc040_7090"
    INDEX 01 02:09:40
  TRACK 100 AUDIO
    TITLE "0:"
    INDEX 01 02:11:45
  TRACK 101 AUDIO
    TITLE "9:cjc040_7091"
    INDEX 01 02:12:19
  TRACK 102 AUDIO
    TITLE "0:"
    INDEX 01 02:13:42
